<svg height="2110" width="720" xmlns="http://www.w3.org/2000/svg">
<rect height="2110" fill="#555" width="720"></rect>
<text fill="#7f7" font-family="Courier New" font-size="12" xml:space="preserve">
<tspan x="10" y="26">118 megabytes installed</tspan>
<tspan x="10" y="42"></tspan>
<tspan x="10" y="58">node_modules</tspan>
<tspan x="10" y="74">└─┬ jquerygo@0.0.16 </tspan>
<tspan x="10" y="90">  ├─┬ async@2.3.0 </tspan>
<tspan x="10" y="106">  │ └── lodash@4.17.4 </tspan>
<tspan x="10" y="122">  ├── asyncgo@0.0.4 </tspan>
<tspan x="10" y="138">  ├─┬ phantom@4.0.2 </tspan>
<tspan x="10" y="154">  │ ├─┬ phantomjs-prebuilt@2.1.14 </tspan>
<tspan x="10" y="170">  │ │ ├── es6-promise@4.0.5 </tspan>
<tspan x="10" y="186">  │ │ ├── fs-extra@1.0.0 </tspan>
<tspan x="10" y="202">  │ │ └─┬ request@2.79.0 </tspan>
<tspan x="10" y="218">  │ │   ├── aws4@1.6.0 </tspan>
<tspan x="10" y="234">  │ │   ├─┬ form-data@2.1.4 </tspan>
<tspan x="10" y="250">  │ │   │ └── asynckit@0.4.0 </tspan>
<tspan x="10" y="266">  │ │   ├── qs@6.3.2 </tspan>
<tspan x="10" y="282">  │ │   ├─┬ tough-cookie@2.3.2 </tspan>
<tspan x="10" y="298">  │ │   │ └── punycode@1.4.1 </tspan>
<tspan x="10" y="314">  │ │   └── uuid@3.0.1 </tspan>
<tspan x="10" y="330">  │ ├─┬ split@1.0.0 </tspan>
<tspan x="10" y="346">  │ │ └── through@2.3.8 </tspan>
<tspan x="10" y="362">  │ └─┬ winston@2.3.1 </tspan>
<tspan x="10" y="378">  │   ├── async@1.0.0 </tspan>
<tspan x="10" y="394">  │   ├── colors@1.0.3 </tspan>
<tspan x="10" y="410">  │   ├── cycle@1.0.3 </tspan>
<tspan x="10" y="426">  │   ├── eyes@0.1.8 </tspan>
<tspan x="10" y="442">  │   ├── isstream@0.1.2 </tspan>
<tspan x="10" y="458">  │   └── stack-trace@0.0.9 </tspan>
<tspan x="10" y="474">  ├─┬ phantomjs@1.9.20 </tspan>
<tspan x="10" y="490">  │ ├─┬ extract-zip@1.5.0 </tspan>
<tspan x="10" y="506">  │ │ ├─┬ concat-stream@1.5.0 </tspan>
<tspan x="10" y="522">  │ │ │ ├── inherits@2.0.3 </tspan>
<tspan x="10" y="538">  │ │ │ ├─┬ readable-stream@2.0.6 </tspan>
<tspan x="10" y="554">  │ │ │ │ ├── core-util-is@1.0.2 </tspan>
<tspan x="10" y="570">  │ │ │ │ ├── isarray@1.0.0 </tspan>
<tspan x="10" y="586">  │ │ │ │ ├── process-nextick-args@1.0.7 </tspan>
<tspan x="10" y="602">  │ │ │ │ ├── string_decoder@0.10.31 </tspan>
<tspan x="10" y="618">  │ │ │ │ └── util-deprecate@1.0.2 </tspan>
<tspan x="10" y="634">  │ │ │ └── typedarray@0.0.6 </tspan>
<tspan x="10" y="650">  │ │ ├── debug@0.7.4 </tspan>
<tspan x="10" y="666">  │ │ ├─┬ mkdirp@0.5.0 </tspan>
<tspan x="10" y="682">  │ │ │ └── minimist@0.0.8 </tspan>
<tspan x="10" y="698">  │ │ └─┬ yauzl@2.4.1 </tspan>
<tspan x="10" y="714">  │ │   └─┬ fd-slicer@1.0.1 </tspan>
<tspan x="10" y="730">  │ │     └── pend@1.2.0 </tspan>
<tspan x="10" y="746">  │ ├─┬ fs-extra@0.26.7 </tspan>
<tspan x="10" y="762">  │ │ ├── graceful-fs@4.1.11 </tspan>
<tspan x="10" y="778">  │ │ ├── jsonfile@2.4.0 </tspan>
<tspan x="10" y="794">  │ │ ├── klaw@1.3.1 </tspan>
<tspan x="10" y="810">  │ │ ├── path-is-absolute@1.0.1 </tspan>
<tspan x="10" y="826">  │ │ └─┬ rimraf@2.6.1 </tspan>
<tspan x="10" y="842">  │ │   └─┬ glob@7.1.1 </tspan>
<tspan x="10" y="858">  │ │     ├── fs.realpath@1.0.0 </tspan>
<tspan x="10" y="874">  │ │     ├─┬ inflight@1.0.6 </tspan>
<tspan x="10" y="890">  │ │     │ └── wrappy@1.0.2 </tspan>
<tspan x="10" y="906">  │ │     ├─┬ minimatch@3.0.3 </tspan>
<tspan x="10" y="922">  │ │     │ └─┬ brace-expansion@1.1.7 </tspan>
<tspan x="10" y="938">  │ │     │   ├── balanced-match@0.4.2 </tspan>
<tspan x="10" y="954">  │ │     │   └── concat-map@0.0.1 </tspan>
<tspan x="10" y="970">  │ │     └── once@1.4.0 </tspan>
<tspan x="10" y="986">  │ ├─┬ hasha@2.2.0 </tspan>
<tspan x="10" y="1002">  │ │ ├── is-stream@1.1.0 </tspan>
<tspan x="10" y="1018">  │ │ └─┬ pinkie-promise@2.0.1 </tspan>
<tspan x="10" y="1034">  │ │   └── pinkie@2.0.4 </tspan>
<tspan x="10" y="1050">  │ ├── kew@0.7.0 </tspan>
<tspan x="10" y="1066">  │ ├── progress@1.1.8 </tspan>
<tspan x="10" y="1082">  │ ├─┬ request@2.67.0 </tspan>
<tspan x="10" y="1098">  │ │ ├── aws-sign2@0.6.0 </tspan>
<tspan x="10" y="1114">  │ │ ├── bl@1.0.3 </tspan>
<tspan x="10" y="1130">  │ │ ├── caseless@0.11.0 </tspan>
<tspan x="10" y="1146">  │ │ ├─┬ combined-stream@1.0.5 </tspan>
<tspan x="10" y="1162">  │ │ │ └── delayed-stream@1.0.0 </tspan>
<tspan x="10" y="1178">  │ │ ├── extend@3.0.0 </tspan>
<tspan x="10" y="1194">  │ │ ├── forever-agent@0.6.1 </tspan>
<tspan x="10" y="1210">  │ │ ├── form-data@1.0.1 </tspan>
<tspan x="10" y="1226">  │ │ ├─┬ har-validator@2.0.6 </tspan>
<tspan x="10" y="1242">  │ │ │ ├─┬ chalk@1.1.3 </tspan>
<tspan x="10" y="1258">  │ │ │ │ ├── ansi-styles@2.2.1 </tspan>
<tspan x="10" y="1274">  │ │ │ │ ├── escape-string-regexp@1.0.5 </tspan>
<tspan x="10" y="1290">  │ │ │ │ ├─┬ has-ansi@2.0.0 </tspan>
<tspan x="10" y="1306">  │ │ │ │ │ └── ansi-regex@2.1.1 </tspan>
<tspan x="10" y="1322">  │ │ │ │ ├── strip-ansi@3.0.1 </tspan>
<tspan x="10" y="1338">  │ │ │ │ └── supports-color@2.0.0 </tspan>
<tspan x="10" y="1354">  │ │ │ ├─┬ commander@2.9.0 </tspan>
<tspan x="10" y="1370">  │ │ │ │ └── graceful-readlink@1.0.1 </tspan>
<tspan x="10" y="1386">  │ │ │ └─┬ is-my-json-valid@2.16.0 </tspan>
<tspan x="10" y="1402">  │ │ │   ├── generate-function@2.0.0 </tspan>
<tspan x="10" y="1418">  │ │ │   ├─┬ generate-object-property@1.2.0 </tspan>
<tspan x="10" y="1434">  │ │ │   │ └── is-property@1.0.2 </tspan>
<tspan x="10" y="1450">  │ │ │   ├── jsonpointer@4.0.1 </tspan>
<tspan x="10" y="1466">  │ │ │   └── xtend@4.0.1 </tspan>
<tspan x="10" y="1482">  │ │ ├─┬ hawk@3.1.3 </tspan>
<tspan x="10" y="1498">  │ │ │ ├── boom@2.10.1 </tspan>
<tspan x="10" y="1514">  │ │ │ ├── cryptiles@2.0.5 </tspan>
<tspan x="10" y="1530">  │ │ │ ├── hoek@2.16.3 </tspan>
<tspan x="10" y="1546">  │ │ │ └── sntp@1.0.9 </tspan>
<tspan x="10" y="1562">  │ │ ├─┬ http-signature@1.1.1 </tspan>
<tspan x="10" y="1578">  │ │ │ ├── assert-plus@0.2.0 </tspan>
<tspan x="10" y="1594">  │ │ │ ├─┬ jsprim@1.4.0 </tspan>
<tspan x="10" y="1610">  │ │ │ │ ├── assert-plus@1.0.0 </tspan>
<tspan x="10" y="1626">  │ │ │ │ ├── extsprintf@1.0.2 </tspan>
<tspan x="10" y="1642">  │ │ │ │ ├── json-schema@0.2.3 </tspan>
<tspan x="10" y="1658">  │ │ │ │ └── verror@1.3.6 </tspan>
<tspan x="10" y="1674">  │ │ │ └─┬ sshpk@1.13.0 </tspan>
<tspan x="10" y="1690">  │ │ │   ├── asn1@0.2.3 </tspan>
<tspan x="10" y="1706">  │ │ │   ├── assert-plus@1.0.0 </tspan>
<tspan x="10" y="1722">  │ │ │   ├── bcrypt-pbkdf@1.0.1 </tspan>
<tspan x="10" y="1738">  │ │ │   ├─┬ dashdash@1.14.1 </tspan>
<tspan x="10" y="1754">  │ │ │   │ └── assert-plus@1.0.0 </tspan>
<tspan x="10" y="1770">  │ │ │   ├── ecc-jsbn@0.1.1 </tspan>
<tspan x="10" y="1786">  │ │ │   ├─┬ getpass@0.1.6 </tspan>
<tspan x="10" y="1802">  │ │ │   │ └── assert-plus@1.0.0 </tspan>
<tspan x="10" y="1818">  │ │ │   ├── jodid25519@1.0.2 </tspan>
<tspan x="10" y="1834">  │ │ │   ├── jsbn@0.1.1 </tspan>
<tspan x="10" y="1850">  │ │ │   └── tweetnacl@0.14.5 </tspan>
<tspan x="10" y="1866">  │ │ ├── is-typedarray@1.0.0 </tspan>
<tspan x="10" y="1882">  │ │ ├── json-stringify-safe@5.0.1 </tspan>
<tspan x="10" y="1898">  │ │ ├─┬ mime-types@2.1.15 </tspan>
<tspan x="10" y="1914">  │ │ │ └── mime-db@1.27.0 </tspan>
<tspan x="10" y="1930">  │ │ ├── node-uuid@1.4.8 </tspan>
<tspan x="10" y="1946">  │ │ ├── oauth-sign@0.8.2 </tspan>
<tspan x="10" y="1962">  │ │ ├── qs@5.2.1 </tspan>
<tspan x="10" y="1978">  │ │ ├── stringstream@0.0.5 </tspan>
<tspan x="10" y="1994">  │ │ ├── tough-cookie@2.2.2 </tspan>
<tspan x="10" y="2010">  │ │ └── tunnel-agent@0.4.3 </tspan>
<tspan x="10" y="2026">  │ ├─┬ request-progress@2.0.1 </tspan>
<tspan x="10" y="2042">  │ │ └── throttleit@1.0.0 </tspan>
<tspan x="10" y="2058">  │ └─┬ which@1.2.14 </tspan>
<tspan x="10" y="2074">  │   └── isexe@2.0.0 </tspan>
<tspan x="10" y="2090">  └── underscore@1.8.3</tspan>
</text>
</svg>
